<?xml version="1.0" encoding="UTF-8" standalone="no"?>
<svg xmlns:rdf="http://www.w3.org/1999/02/22-rdf-syntax-ns#" xmlns="http://www.w3.org/2000/svg" xml:space="preserve" height="32.27" width="137.77" version="1.1" xmlns:cc="http://creativecommons.org/ns#" xmlns:dc="http://purl.org/dc/elements/1.1/" viewBox="0 0 137.77344 32.269531"><g><path d="m32.059 0.50989c-8.7138 0-10.162 6.748-10.162 6.748l-2.4238 11.258h-0.0098l-1.1406-0.002 3.7891-17.529h-10.939l-4.5122 20.871-6.1758 6.67h20.467l0.24805-1.1289c1.4638 1.0812 3.4831 1.6836 5.7656 1.6836 5.5775 0 8.2168-3.2148 8.2168-3.2148 1.47 1.6975 3.8733 2.6602 6.8008 2.6602h22.818s5.3711-4.4193 5.3711-10.092l1.7188 13.346 1.7637-3.2539h57.633l2.1836-10.041h-1.9863l1.5664-7.4082h2.0352l2.1719-10.107h-15.742l-3.7754 17.498h-3.2754l3.7891-17.469h-10.941l-3.7871 17.469h-3.0938l3.791-17.482h-66.209l-0.248 1.2115c-1.462-1.0862-3.461-1.6875-5.709-1.6875z"/><path d="m32.059 3.2285c-6.51 0-7.504 4.6035-7.504 4.6035l-3.018 14.006s-0.903 4.525 5.428 4.525c6.371 0 7.471-4.633 7.471-4.633l3.017-14.003c0-0.0004 0.975-4.4985-5.394-4.4985zm8.156 0.4453l-3.66 17.58s-1.072 4.549 5.427 4.549c6.376 0 7.471-4.657 7.471-4.657l3.637-17.472-5.412-0.0002-3.555 17.058c-0.087 0.414-0.582 0.737-1.127 0.737-1.027 0-0.894-0.84-0.894-0.84l3.529-16.955-5.416-0.0002zm14.924 0l-4.192 19.449-2.472 2.68h7.365l4.68-22.129-5.381-0.0002zm9.17 0s-3.887 3.4718-3.887 8.2442c0 4.201 1.486 5.148 1.486 7.348 0 2.858-4.906 6.537-4.906 6.537h6.709s3.75-3.17 3.75-7.479c0-3.272-1.652-4.334-1.652-6.762 0-2.8244 5.08-7.7847 5.08-7.7847l1.869 21.776 11.359-21.879-4.92-0.0002-3.125 7.0212-0.146-7.0212h-11.617zm21.828 0l-4.194 19.449-2.472 2.68h7.367l4.676-22.129-5.377-0.0002zm37.553 0l-4.18 19.453-2.47 2.676h12.05 0.02l0.98-4.623h-4.78l0.98-4.498h2.77l0.99-4.606h-2.77l0.8-3.7166h4.81l1-4.6856h-10.2zm-110.32 0.002l-4.2048 19.429-2.4707 2.698h12.064l0.994-4.623h-4.791l3.787-17.504-5.379-0.0002zm82.108 0l-4.205 19.429-2.469 2.698h12.061l1-4.623h-4.796l3.786-17.504-5.377-0.0002zm14.027 0l-4.2 19.429-2.47 2.698h12.06l1-4.623h-4.79l3.78-17.504-5.38-0.0002zm-78.494 3.8633c1.01 0 0.894 0.8418 0.894 0.8418l-2.793 12.935c-0.09 0.414-0.586 0.739-1.128 0.739-0.97 0-0.897-0.842-0.897-0.842l2.795-12.938c0.09-0.4133 0.584-0.7359 1.129-0.7359z" fill="#c9001f" transform="translate(0 -.00063707)"/></g></svg>
