<?xml version="1.0" encoding="UTF-8"?>
<svg width="200px" height="200px" viewBox="0 0 200 200" version="1.1" xmlns="http://www.w3.org/2000/svg" xmlns:xlink="http://www.w3.org/1999/xlink">
    <!-- Generator: Sketch 54.1 (76490) - https://sketchapp.com -->
    <title>springfield</title>
    <desc>Created with Sketch.</desc>
    <g id="springfield" stroke="none" stroke-width="1" fill="none" fill-rule="evenodd">
        <g id="springfield_BGL">
            <g id="springfield" transform="translate(21.000000, 0.000000)">
                <g id="g10" transform="translate(78.844920, 100.225398) scale(-1, 1) rotate(-180.000000) translate(-78.844920, -100.225398) translate(0.000000, 0.071040)" fill-rule="nonzero">
                    <g id="g12">
                        <polyline id="path14" fill="#4C5055" points="152.815661 31.5717789 115.693058 4.31294498 41.4374804 4.31294498 4.31239093 31.5717789 4.31239093 58.8356419 56.5494234 58.8356419 56.5494234 45.1404924 97.0379235 45.1404924 97.0379235 79.1773472 41.4374804 79.1773472 4.31239093 106.443909 4.31239093 167.747894 41.4374804 195.004086 115.693058 195.004086 152.815661 167.747894 152.815661 140.481901 99.5694847 140.481901 99.5694847 154.047347 60.0954559 154.047347 60.0954559 120.005378 115.693058 120.005378 152.815661 92.8736332 152.815661 31.5717789"></polyline>
                        <path d="M42.8508644,8.62755209 L114.279674,8.62755209 L148.502631,33.7554281 L148.502631,90.6833071 L114.285214,115.693058 L55.7824257,115.693058 L55.7824257,158.358956 L103.882941,158.358956 L103.882941,144.794789 L148.502631,144.794789 L148.502631,165.564387 L114.279674,190.692477 L42.8508644,190.692477 L8.6253217,165.564387 L8.6253217,108.627701 L42.8514326,83.4902353 L101.350812,83.4902353 L101.350812,40.8276043 L52.2363932,40.8276043 L52.2363932,54.5238903 L8.6253217,54.5238903 L8.6253217,33.7554281 L42.8508644,8.62755209 Z M117.10701,0 L40.0245226,0 L0,29.3886981 L0,63.1481039 L60.8617433,63.1481039 L60.8617433,49.4523862 L92.724325,49.4523862 L92.724325,74.8648852 L40.0239544,74.8648852 L0,104.26026 L0,169.931402 L40.0245226,199.317116 L117.10701,199.317116 L157.128691,169.931402 L157.128691,136.169012 L95.2564545,136.169012 L95.2564545,149.734316 L64.4077758,149.734316 L64.4077758,124.31784 L117.10147,124.31784 L157.128691,95.063391 L157.128691,29.3886981 L117.10701,0 L117.10701,0 Z" id="path16" fill="#4C5055"></path>
                        <polyline id="path18" fill="#871C30" points="66.6647294 79.1773472 90.2493049 120.005378 59.7641652 120.005378 59.7641652 154.043085 101.144394 154.043085 101.144394 140.481901 102.077748 140.481901 128.025398 185.402053 115.029908 195.004086 41.2182773 195.004086 4.31239093 167.73795 4.31239093 106.435101 41.2182773 79.1773472 66.6647294 79.1773472"></polyline>
                        <polyline id="path20" fill="#871C30" points="53.6193757 56.5865018 53.6193757 58.826834 4.31239093 58.826834 4.31239093 31.5717789 28.742738 13.5298309 53.6193757 56.5865018"></polyline>
                        <polyline id="path22" fill="#BAB9B7" points="87.1750633 120.005378 63.5703149 79.1773472 96.4868614 79.1773472 96.4868614 45.130548 53.6193757 45.130548 53.6193757 58.826834 51.8040957 58.826834 26.5474397 15.1451857 41.2182773 4.31294498 115.029908 4.31294498 151.936292 31.5717789 151.936292 92.8736332 115.029908 120.005378 87.1750633 120.005378"></polyline>
                        <polyline id="path24" fill="#BAB9B7" points="125.895448 186.977531 101.144394 144.162609 101.144394 140.481901 151.936292 140.481901 151.936292 167.73795 125.895448 186.977531"></polyline>
                    </g>
                </g>
            </g>
        </g>
    </g>
</svg>